<?xml version="1.0" encoding="UTF-8"?>
<svg width="78px" height="90px" viewBox="0 0 78 90" version="1.1" xmlns="http://www.w3.org/2000/svg" xmlns:xlink="http://www.w3.org/1999/xlink">
    <title>Shape</title>
    <g id="Page-1" stroke="none" stroke-width="1" fill="none" fill-rule="evenodd">
        <g id="noun_Bell_3419639" transform="translate(-106.000000, -1.000000)" fill="#000000" fill-rule="nonzero">
            <g id="Group" transform="translate(106.000000, 0.637820)">
                <path d="M39,0.36218 C34.617254,0.36218 31,3.97944 31,8.36218 C31,9.422839 31.242503,10.4324 31.625,11.36218 C19.165911,14.837109 11,26.890997 11,40.36218 L11,62.36218 L8,62.36218 C3.619892,62.36218 0,65.98208 0,70.36218 C0,74.74228 3.619892,78.36218 8,78.36218 L22.1875,78.36218 C22.751292,81.612996 24.650275,84.444544 27.25,86.48718 C30.366407,88.93578 34.497055,90.36218 39,90.36218 C43.502946,90.36218 47.633593,88.93578 50.75,86.48718 C53.349725,84.444544 55.248708,81.612996 55.8125,78.36218 L70,78.36218 C74.380108,78.36218 78,74.74228 78,70.36218 C78,65.98208 74.380108,62.36218 70,62.36218 L67,62.36218 L67,40.36218 C67,26.890997 58.834089,14.837112 46.375,11.36218 C46.757497,10.4324 47,9.422839 47,8.36218 C47,3.97944 43.382746,0.36218 39,0.36218 Z M39,6.36218 C40.140105,6.36218 41,7.22208 41,8.36218 C41,9.50228 40.140105,10.36218 39,10.36218 C37.859895,10.36218 37,9.50228 37,8.36218 C37,7.22208 37.859895,6.36218 39,6.36218 Z M38.71875,16.36218 C38.8124486,16.3665721 38.9063014,16.3665721 39,16.36218 C39.1054,16.362447 39.207661,16.360546 39.3125,16.36218 C52.32592,16.565048 61,27.272513 61,40.36218 L61,62.36218 L17,62.36218 L17,40.36218 C17,27.261968 25.687847,16.548262 38.71875,16.36218 Z M8,68.36218 L70,68.36218 C71.159892,68.36218 72,69.20228 72,70.36218 C72,71.52208 71.159892,72.36218 70,72.36218 L8,72.36218 C6.840108,72.36218 6,71.52208 6,70.36218 C6,69.20228 6.840108,68.36218 8,68.36218 Z M28.375,78.36218 L49.625,78.36218 C49.173822,79.606348 48.316223,80.758816 47.03125,81.76843 C45.080654,83.30113 42.229043,84.36218 39,84.36218 C35.770957,84.36218 32.919346,83.30113 30.96875,81.76843 C29.683777,80.758816 28.826178,79.606348 28.375,78.36218 Z" id="Shape"></path>
            </g>
        </g>
    </g>
</svg>